# Blender v2.74 (sub 0) OBJ File: ''
# www.blender.org
mtllib arrow.mtl
o Merged_Meshes
v -0.251449 0.034080 -0.500611
v -0.251449 -0.065869 -0.497428
v 0.248549 0.034037 -0.502061
v 0.248549 -0.065912 -0.498878
v -0.248549 -0.034037 0.502061
v -0.248549 0.065912 0.498878
v 0.251449 -0.034080 0.500611
v 0.251449 0.065869 0.497428
v -0.003399 0.018337 -0.994982
v -0.003399 -0.081612 -0.991799
v -0.501430 -0.065653 -0.490607
v -0.501431 0.034296 -0.493790
v 0.498566 -0.065740 -0.493505
v 0.498565 0.034210 -0.496689
vt 0.000000 1.000000
vt 0.000000 0.000000
vt 1.000000 0.000000
vt 1.000000 1.000000
vn -0.002900 -0.031800 -0.999500
vn 0.002900 0.031800 0.999500
vn -1.000000 0.000100 0.002900
vn 1.000000 -0.000100 -0.002900
vn -0.000000 0.999500 -0.031800
vn 0.000000 -0.999500 0.031800
vn -0.709500 -0.022400 -0.704300
vn 0.704700 -0.022600 -0.709200
usemtl b0b0b0
s 1
f 1/1/1 3/2/1 4/3/1 2/4/1
f 5/1/2 7/2/2 8/3/2 6/4/2
f 5/1/3 6/2/3 1/3/3 2/4/3
f 8/1/4 7/2/4 4/3/4 3/4/4
f 6/1/5 8/2/5 3/3/5 1/4/5
f 2/1/6 4/2/6 7/3/6 5/4/6
f 11/1/2 13/2/2 14/3/2 12/4/2
f 11/1/7 12/2/7 9/3/7 10/4/7
f 14/1/8 13/2/8 10/3/8 9/4/8
f 12/1/5 14/2/5 9/3/5
f 10/1/6 13/3/6 11/4/6
